# xmcd
#
# Track frame offsets:
#	150
#	18375
#	37835
#	53997
#	70937
#	89520
#	101995
#	121807
#	141617
#	153915
#	169920
#	183687
#
# Disc length: 2720 seconds
#
# Revision: 0
# Processed by: cddbd v1.5.2PL0 Copyright (c) Steve Scherf et al.
# Submitted via: EasyCDDAExtractor 10.2.0.1
#
DISCID=aa0a9e0c
DTITLE=Charles Johnson - The Best Of The Early Years
DYEAR=1998
DGENRE=Gospel
TTITLE0=I've Been Sealed
TTITLE1=Fill My Cup, Lord
TTITLE2=It's Time To Go Back Home
TTITLE3=Where Could I Go
TTITLE4=God Is Not Pleased
TTITLE5=Will The Circle Be Unbroken Medley
TTITLE6=I'll See You In The Rapture
TTITLE7=My Friend Jesus
TTITLE8=Leaning On The Everlasting Arms
TTITLE9=The End Of Time Is Drawing Nigh
TTITLE10=It's Time To Go To The Altar
TTITLE11=I Can't Even Walk Without You Holding My Hand
EXTD=
EXTT0=
EXTT1=
EXTT2=
EXTT3=
EXTT4=
EXTT5=
EXTT6=
EXTT7=
EXTT8=
EXTT9=
EXTT10=
EXTT11=
PLAYORDER=
